<mxfile host="app.diagrams.net" agent="Mozilla/5.0 (Windows NT 10.0; Win64; x64) AppleWebKit/537.36 (KHTML, like Gecko) Chrome/131.0.0.0 Safari/537.36" version="24.8.6">
  <diagram name="Page-1" id="R2j4ZSWm_-1CP9F29T8v">
    <mxGraphModel dx="819" dy="490" grid="1" gridSize="10" guides="1" tooltips="1" connect="1" arrows="1" fold="1" page="1" pageScale="1" pageWidth="850" pageHeight="1100" math="0" shadow="0">
      <root>
        <mxCell id="0" />
        <mxCell id="1" parent="0" />
        <mxCell id="yVtswH6ursYnuViOBzky-41" value="1" style="ellipse;whiteSpace=wrap;html=1;" vertex="1" parent="1">
          <mxGeometry x="50" y="329" width="30" height="30" as="geometry" />
        </mxCell>
        <mxCell id="yVtswH6ursYnuViOBzky-42" value="5" style="ellipse;whiteSpace=wrap;html=1;" vertex="1" parent="1">
          <mxGeometry x="160" y="209" width="30" height="30" as="geometry" />
        </mxCell>
        <mxCell id="yVtswH6ursYnuViOBzky-43" value="4" style="ellipse;whiteSpace=wrap;html=1;" vertex="1" parent="1">
          <mxGeometry x="160" y="289" width="30" height="30" as="geometry" />
        </mxCell>
        <mxCell id="yVtswH6ursYnuViOBzky-44" value="3" style="ellipse;whiteSpace=wrap;html=1;" vertex="1" parent="1">
          <mxGeometry x="160" y="369" width="30" height="30" as="geometry" />
        </mxCell>
        <mxCell id="yVtswH6ursYnuViOBzky-45" value="2" style="ellipse;whiteSpace=wrap;html=1;" vertex="1" parent="1">
          <mxGeometry x="160" y="449" width="30" height="30" as="geometry" />
        </mxCell>
        <mxCell id="yVtswH6ursYnuViOBzky-46" value="8" style="ellipse;whiteSpace=wrap;html=1;" vertex="1" parent="1">
          <mxGeometry x="280" y="289" width="30" height="30" as="geometry" />
        </mxCell>
        <mxCell id="yVtswH6ursYnuViOBzky-47" value="9" style="ellipse;whiteSpace=wrap;html=1;" vertex="1" parent="1">
          <mxGeometry x="280" y="209" width="30" height="30" as="geometry" />
        </mxCell>
        <mxCell id="yVtswH6ursYnuViOBzky-48" value="10" style="ellipse;whiteSpace=wrap;html=1;" vertex="1" parent="1">
          <mxGeometry x="280" y="130" width="30" height="30" as="geometry" />
        </mxCell>
        <mxCell id="yVtswH6ursYnuViOBzky-49" value="7" style="ellipse;whiteSpace=wrap;html=1;" vertex="1" parent="1">
          <mxGeometry x="280" y="369" width="30" height="30" as="geometry" />
        </mxCell>
        <mxCell id="yVtswH6ursYnuViOBzky-50" value="6" style="ellipse;whiteSpace=wrap;html=1;" vertex="1" parent="1">
          <mxGeometry x="280" y="449" width="30" height="30" as="geometry" />
        </mxCell>
        <mxCell id="yVtswH6ursYnuViOBzky-51" value="12" style="ellipse;whiteSpace=wrap;html=1;" vertex="1" parent="1">
          <mxGeometry x="400" y="209" width="30" height="30" as="geometry" />
        </mxCell>
        <mxCell id="yVtswH6ursYnuViOBzky-52" value="11" style="ellipse;whiteSpace=wrap;html=1;" vertex="1" parent="1">
          <mxGeometry x="400" y="369" width="30" height="30" as="geometry" />
        </mxCell>
        <mxCell id="yVtswH6ursYnuViOBzky-53" value="13" style="ellipse;whiteSpace=wrap;html=1;" vertex="1" parent="1">
          <mxGeometry x="520" y="289" width="30" height="30" as="geometry" />
        </mxCell>
        <mxCell id="yVtswH6ursYnuViOBzky-54" value="" style="endArrow=none;html=1;rounded=0;exitX=1;exitY=0.5;exitDx=0;exitDy=0;entryX=0;entryY=0.5;entryDx=0;entryDy=0;fontColor=#007FFF;strokeWidth=4;fillColor=#dae8fc;strokeColor=#6c8ebf;" edge="1" parent="1" source="yVtswH6ursYnuViOBzky-41" target="yVtswH6ursYnuViOBzky-42">
          <mxGeometry width="50" height="50" relative="1" as="geometry">
            <mxPoint x="70" y="289" as="sourcePoint" />
            <mxPoint x="120" y="239" as="targetPoint" />
          </mxGeometry>
        </mxCell>
        <mxCell id="yVtswH6ursYnuViOBzky-55" value="" style="endArrow=none;html=1;rounded=0;entryX=0;entryY=0.5;entryDx=0;entryDy=0;exitX=1;exitY=0.5;exitDx=0;exitDy=0;fontColor=#007FFF;strokeWidth=4;fillColor=#dae8fc;strokeColor=#6c8ebf;" edge="1" parent="1" source="yVtswH6ursYnuViOBzky-42" target="yVtswH6ursYnuViOBzky-48">
          <mxGeometry width="50" height="50" relative="1" as="geometry">
            <mxPoint x="180" y="160" as="sourcePoint" />
            <mxPoint x="230" y="110" as="targetPoint" />
          </mxGeometry>
        </mxCell>
        <mxCell id="yVtswH6ursYnuViOBzky-56" value="" style="endArrow=none;html=1;rounded=0;entryX=1;entryY=0.5;entryDx=0;entryDy=0;exitX=0;exitY=0.5;exitDx=0;exitDy=0;fontColor=#007FFF;strokeWidth=4;fillColor=#dae8fc;strokeColor=#6c8ebf;" edge="1" parent="1" source="yVtswH6ursYnuViOBzky-51" target="yVtswH6ursYnuViOBzky-48">
          <mxGeometry width="50" height="50" relative="1" as="geometry">
            <mxPoint x="320" y="320" as="sourcePoint" />
            <mxPoint x="370" y="270" as="targetPoint" />
          </mxGeometry>
        </mxCell>
        <mxCell id="yVtswH6ursYnuViOBzky-57" value="" style="endArrow=none;html=1;rounded=0;entryX=1;entryY=0.5;entryDx=0;entryDy=0;exitX=0;exitY=0.5;exitDx=0;exitDy=0;fontColor=#007FFF;strokeWidth=4;fillColor=#dae8fc;strokeColor=#6c8ebf;" edge="1" parent="1" source="yVtswH6ursYnuViOBzky-53" target="yVtswH6ursYnuViOBzky-51">
          <mxGeometry width="50" height="50" relative="1" as="geometry">
            <mxPoint x="320" y="320" as="sourcePoint" />
            <mxPoint x="370" y="270" as="targetPoint" />
          </mxGeometry>
        </mxCell>
        <mxCell id="yVtswH6ursYnuViOBzky-58" value="" style="endArrow=none;html=1;rounded=0;entryX=0;entryY=0.5;entryDx=0;entryDy=0;exitX=1;exitY=0.5;exitDx=0;exitDy=0;fillColor=#f8cecc;strokeColor=#b85450;strokeWidth=4;" edge="1" parent="1" source="yVtswH6ursYnuViOBzky-52" target="yVtswH6ursYnuViOBzky-53">
          <mxGeometry width="50" height="50" relative="1" as="geometry">
            <mxPoint x="320" y="320" as="sourcePoint" />
            <mxPoint x="370" y="270" as="targetPoint" />
          </mxGeometry>
        </mxCell>
        <mxCell id="yVtswH6ursYnuViOBzky-59" value="&lt;font color=&quot;#00cc00&quot;&gt;1&lt;/font&gt;" style="text;html=1;align=center;verticalAlign=middle;resizable=0;points=[];autosize=1;strokeColor=none;fillColor=none;" vertex="1" parent="1">
          <mxGeometry x="80" y="268" width="30" height="30" as="geometry" />
        </mxCell>
        <mxCell id="yVtswH6ursYnuViOBzky-60" value="1" style="text;html=1;align=center;verticalAlign=middle;resizable=0;points=[];autosize=1;strokeColor=none;fillColor=none;" vertex="1" parent="1">
          <mxGeometry x="205" y="160" width="30" height="30" as="geometry" />
        </mxCell>
        <mxCell id="yVtswH6ursYnuViOBzky-61" value="2" style="text;html=1;align=center;verticalAlign=middle;resizable=0;points=[];autosize=1;strokeColor=none;fillColor=none;" vertex="1" parent="1">
          <mxGeometry x="360" y="160" width="30" height="30" as="geometry" />
        </mxCell>
        <mxCell id="yVtswH6ursYnuViOBzky-62" value="2" style="text;html=1;align=center;verticalAlign=middle;resizable=0;points=[];autosize=1;strokeColor=none;fillColor=none;" vertex="1" parent="1">
          <mxGeometry x="470" y="238" width="30" height="30" as="geometry" />
        </mxCell>
        <mxCell id="yVtswH6ursYnuViOBzky-67" value="" style="endArrow=none;html=1;rounded=0;edgeStyle=orthogonalEdgeStyle;curved=1;exitX=1;exitY=0.5;exitDx=0;exitDy=0;entryX=0;entryY=0.5;entryDx=0;entryDy=0;" edge="1" parent="1" source="yVtswH6ursYnuViOBzky-42" target="yVtswH6ursYnuViOBzky-53">
          <mxGeometry width="50" height="50" relative="1" as="geometry">
            <mxPoint x="320" y="320" as="sourcePoint" />
            <mxPoint x="370" y="270" as="targetPoint" />
            <Array as="points">
              <mxPoint x="190" y="100" />
              <mxPoint x="510" y="100" />
              <mxPoint x="510" y="304" />
            </Array>
          </mxGeometry>
        </mxCell>
        <mxCell id="yVtswH6ursYnuViOBzky-68" value="&lt;font color=&quot;#00cc00&quot;&gt;6&lt;/font&gt;" style="text;html=1;align=center;verticalAlign=middle;resizable=0;points=[];autosize=1;strokeColor=none;fillColor=none;" vertex="1" parent="1">
          <mxGeometry x="395" y="80" width="30" height="30" as="geometry" />
        </mxCell>
        <mxCell id="yVtswH6ursYnuViOBzky-69" value="" style="endArrow=none;html=1;rounded=0;entryX=0;entryY=0.5;entryDx=0;entryDy=0;exitX=1;exitY=0.5;exitDx=0;exitDy=0;fillColor=#dae8fc;strokeColor=#6c8ebf;strokeWidth=4;" edge="1" parent="1" source="yVtswH6ursYnuViOBzky-41" target="yVtswH6ursYnuViOBzky-43">
          <mxGeometry width="50" height="50" relative="1" as="geometry">
            <mxPoint x="80" y="430" as="sourcePoint" />
            <mxPoint x="130" y="380" as="targetPoint" />
          </mxGeometry>
        </mxCell>
        <mxCell id="yVtswH6ursYnuViOBzky-70" value="" style="endArrow=none;html=1;rounded=0;exitX=1;exitY=0.5;exitDx=0;exitDy=0;entryX=0;entryY=0.5;entryDx=0;entryDy=0;fillColor=#dae8fc;strokeColor=#6c8ebf;strokeWidth=4;" edge="1" parent="1" source="yVtswH6ursYnuViOBzky-43" target="yVtswH6ursYnuViOBzky-48">
          <mxGeometry width="50" height="50" relative="1" as="geometry">
            <mxPoint x="320" y="320" as="sourcePoint" />
            <mxPoint x="370" y="270" as="targetPoint" />
          </mxGeometry>
        </mxCell>
        <mxCell id="yVtswH6ursYnuViOBzky-71" value="" style="endArrow=none;html=1;rounded=0;exitX=1;exitY=0.5;exitDx=0;exitDy=0;entryX=0;entryY=0.5;entryDx=0;entryDy=0;" edge="1" parent="1" source="yVtswH6ursYnuViOBzky-43" target="yVtswH6ursYnuViOBzky-47">
          <mxGeometry width="50" height="50" relative="1" as="geometry">
            <mxPoint x="320" y="320" as="sourcePoint" />
            <mxPoint x="370" y="270" as="targetPoint" />
          </mxGeometry>
        </mxCell>
        <mxCell id="yVtswH6ursYnuViOBzky-72" value="1" style="text;html=1;align=center;verticalAlign=middle;resizable=0;points=[];autosize=1;strokeColor=none;fillColor=none;" vertex="1" parent="1">
          <mxGeometry x="110" y="318" width="30" height="30" as="geometry" />
        </mxCell>
        <mxCell id="yVtswH6ursYnuViOBzky-73" value="1" style="text;html=1;align=center;verticalAlign=middle;resizable=0;points=[];autosize=1;strokeColor=none;fillColor=none;" vertex="1" parent="1">
          <mxGeometry x="190" y="250" width="30" height="30" as="geometry" />
        </mxCell>
        <mxCell id="yVtswH6ursYnuViOBzky-74" value="2" style="text;html=1;align=center;verticalAlign=middle;resizable=0;points=[];autosize=1;strokeColor=none;fillColor=none;" vertex="1" parent="1">
          <mxGeometry x="235" y="250" width="30" height="30" as="geometry" />
        </mxCell>
        <mxCell id="yVtswH6ursYnuViOBzky-75" value="" style="endArrow=none;html=1;rounded=0;exitX=1;exitY=0.5;exitDx=0;exitDy=0;entryX=0;entryY=0.5;entryDx=0;entryDy=0;" edge="1" parent="1" source="yVtswH6ursYnuViOBzky-43" target="yVtswH6ursYnuViOBzky-46">
          <mxGeometry width="50" height="50" relative="1" as="geometry">
            <mxPoint x="320" y="320" as="sourcePoint" />
            <mxPoint x="370" y="270" as="targetPoint" />
          </mxGeometry>
        </mxCell>
        <mxCell id="yVtswH6ursYnuViOBzky-76" value="3" style="text;html=1;align=center;verticalAlign=middle;resizable=0;points=[];autosize=1;strokeColor=none;fillColor=none;" vertex="1" parent="1">
          <mxGeometry x="235" y="280" width="30" height="30" as="geometry" />
        </mxCell>
        <mxCell id="yVtswH6ursYnuViOBzky-77" value="" style="endArrow=none;html=1;rounded=0;exitX=1;exitY=0.5;exitDx=0;exitDy=0;entryX=0;entryY=0.5;entryDx=0;entryDy=0;fillColor=#dae8fc;strokeColor=#6c8ebf;strokeWidth=4;" edge="1" parent="1" source="yVtswH6ursYnuViOBzky-42" target="yVtswH6ursYnuViOBzky-47">
          <mxGeometry width="50" height="50" relative="1" as="geometry">
            <mxPoint x="320" y="320" as="sourcePoint" />
            <mxPoint x="370" y="270" as="targetPoint" />
          </mxGeometry>
        </mxCell>
        <mxCell id="yVtswH6ursYnuViOBzky-78" value="1" style="text;html=1;align=center;verticalAlign=middle;resizable=0;points=[];autosize=1;strokeColor=none;fillColor=none;" vertex="1" parent="1">
          <mxGeometry x="205" y="198" width="30" height="30" as="geometry" />
        </mxCell>
        <mxCell id="yVtswH6ursYnuViOBzky-79" value="" style="endArrow=none;html=1;rounded=0;entryX=0;entryY=0.5;entryDx=0;entryDy=0;exitX=1;exitY=0.5;exitDx=0;exitDy=0;fillColor=#dae8fc;strokeColor=#6c8ebf;strokeWidth=4;" edge="1" parent="1" source="yVtswH6ursYnuViOBzky-47" target="yVtswH6ursYnuViOBzky-51">
          <mxGeometry width="50" height="50" relative="1" as="geometry">
            <mxPoint x="320" y="320" as="sourcePoint" />
            <mxPoint x="370" y="270" as="targetPoint" />
          </mxGeometry>
        </mxCell>
        <mxCell id="yVtswH6ursYnuViOBzky-80" value="2" style="text;html=1;align=center;verticalAlign=middle;resizable=0;points=[];autosize=1;strokeColor=none;fillColor=none;" vertex="1" parent="1">
          <mxGeometry x="325" y="198" width="30" height="30" as="geometry" />
        </mxCell>
        <mxCell id="yVtswH6ursYnuViOBzky-81" value="" style="endArrow=none;html=1;rounded=0;entryX=1;entryY=0.5;entryDx=0;entryDy=0;exitX=0;exitY=0.5;exitDx=0;exitDy=0;" edge="1" parent="1" source="yVtswH6ursYnuViOBzky-53" target="yVtswH6ursYnuViOBzky-47">
          <mxGeometry width="50" height="50" relative="1" as="geometry">
            <mxPoint x="320" y="320" as="sourcePoint" />
            <mxPoint x="370" y="270" as="targetPoint" />
          </mxGeometry>
        </mxCell>
        <mxCell id="yVtswH6ursYnuViOBzky-82" value="4" style="text;html=1;align=center;verticalAlign=middle;resizable=0;points=[];autosize=1;strokeColor=none;fillColor=none;" vertex="1" parent="1">
          <mxGeometry x="425" y="250" width="30" height="30" as="geometry" />
        </mxCell>
        <mxCell id="yVtswH6ursYnuViOBzky-83" value="" style="endArrow=none;html=1;rounded=0;entryX=1;entryY=0.5;entryDx=0;entryDy=0;exitX=0;exitY=0.5;exitDx=0;exitDy=0;" edge="1" parent="1" source="yVtswH6ursYnuViOBzky-52" target="yVtswH6ursYnuViOBzky-47">
          <mxGeometry width="50" height="50" relative="1" as="geometry">
            <mxPoint x="320" y="320" as="sourcePoint" />
            <mxPoint x="370" y="270" as="targetPoint" />
          </mxGeometry>
        </mxCell>
        <mxCell id="yVtswH6ursYnuViOBzky-85" value="3" style="text;html=1;align=center;verticalAlign=middle;resizable=0;points=[];autosize=1;strokeColor=none;fillColor=none;" vertex="1" parent="1">
          <mxGeometry x="355" y="288" width="30" height="30" as="geometry" />
        </mxCell>
        <mxCell id="yVtswH6ursYnuViOBzky-86" value="" style="endArrow=none;html=1;rounded=0;exitX=1;exitY=0.5;exitDx=0;exitDy=0;entryX=0;entryY=0.5;entryDx=0;entryDy=0;fillColor=#f8cecc;strokeColor=#b85450;strokeWidth=4;" edge="1" parent="1" source="yVtswH6ursYnuViOBzky-46" target="yVtswH6ursYnuViOBzky-52">
          <mxGeometry width="50" height="50" relative="1" as="geometry">
            <mxPoint x="320" y="320" as="sourcePoint" />
            <mxPoint x="370" y="270" as="targetPoint" />
          </mxGeometry>
        </mxCell>
        <mxCell id="yVtswH6ursYnuViOBzky-87" value="&lt;font color=&quot;#00cc00&quot;&gt;0.5&lt;/font&gt;" style="text;html=1;align=center;verticalAlign=middle;resizable=0;points=[];autosize=1;strokeColor=none;fillColor=none;" vertex="1" parent="1">
          <mxGeometry x="330" y="310" width="40" height="30" as="geometry" />
        </mxCell>
        <mxCell id="yVtswH6ursYnuViOBzky-88" value="" style="endArrow=none;html=1;rounded=0;exitX=0.5;exitY=1;exitDx=0;exitDy=0;entryX=0.5;entryY=0;entryDx=0;entryDy=0;strokeWidth=4;fillColor=#f8cecc;strokeColor=#b85450;" edge="1" parent="1" source="yVtswH6ursYnuViOBzky-46" target="yVtswH6ursYnuViOBzky-49">
          <mxGeometry width="50" height="50" relative="1" as="geometry">
            <mxPoint x="320" y="320" as="sourcePoint" />
            <mxPoint x="370" y="270" as="targetPoint" />
          </mxGeometry>
        </mxCell>
        <mxCell id="yVtswH6ursYnuViOBzky-89" value="" style="endArrow=none;html=1;rounded=0;exitX=1;exitY=0.5;exitDx=0;exitDy=0;entryX=0;entryY=0.5;entryDx=0;entryDy=0;" edge="1" parent="1" source="yVtswH6ursYnuViOBzky-49" target="yVtswH6ursYnuViOBzky-52">
          <mxGeometry width="50" height="50" relative="1" as="geometry">
            <mxPoint x="405" y="470" as="sourcePoint" />
            <mxPoint x="455" y="420" as="targetPoint" />
          </mxGeometry>
        </mxCell>
        <mxCell id="yVtswH6ursYnuViOBzky-90" value="4" style="text;html=1;align=center;verticalAlign=middle;resizable=0;points=[];autosize=1;strokeColor=none;fillColor=none;" vertex="1" parent="1">
          <mxGeometry x="330" y="380" width="30" height="30" as="geometry" />
        </mxCell>
        <mxCell id="yVtswH6ursYnuViOBzky-91" value="1" style="text;html=1;align=center;verticalAlign=middle;resizable=0;points=[];autosize=1;strokeColor=none;fillColor=none;" vertex="1" parent="1">
          <mxGeometry x="295" y="329" width="30" height="30" as="geometry" />
        </mxCell>
        <mxCell id="yVtswH6ursYnuViOBzky-92" value="" style="endArrow=none;html=1;rounded=0;exitX=1;exitY=0.5;exitDx=0;exitDy=0;entryX=0;entryY=0.5;entryDx=0;entryDy=0;fillColor=#dae8fc;strokeColor=#6c8ebf;strokeWidth=4;" edge="1" parent="1" source="yVtswH6ursYnuViOBzky-50" target="yVtswH6ursYnuViOBzky-52">
          <mxGeometry width="50" height="50" relative="1" as="geometry">
            <mxPoint x="440" y="510" as="sourcePoint" />
            <mxPoint x="490" y="460" as="targetPoint" />
          </mxGeometry>
        </mxCell>
        <mxCell id="yVtswH6ursYnuViOBzky-93" value="3" style="text;html=1;align=center;verticalAlign=middle;resizable=0;points=[];autosize=1;strokeColor=none;fillColor=none;" vertex="1" parent="1">
          <mxGeometry x="340" y="419" width="30" height="30" as="geometry" />
        </mxCell>
        <mxCell id="yVtswH6ursYnuViOBzky-94" value="" style="endArrow=none;html=1;rounded=0;exitX=0.5;exitY=0;exitDx=0;exitDy=0;entryX=0.5;entryY=1;entryDx=0;entryDy=0;" edge="1" parent="1" source="yVtswH6ursYnuViOBzky-50" target="yVtswH6ursYnuViOBzky-49">
          <mxGeometry width="50" height="50" relative="1" as="geometry">
            <mxPoint x="320" y="320" as="sourcePoint" />
            <mxPoint x="370" y="270" as="targetPoint" />
          </mxGeometry>
        </mxCell>
        <mxCell id="yVtswH6ursYnuViOBzky-95" value="2" style="text;html=1;align=center;verticalAlign=middle;resizable=0;points=[];autosize=1;strokeColor=none;fillColor=none;" vertex="1" parent="1">
          <mxGeometry x="295" y="410" width="30" height="30" as="geometry" />
        </mxCell>
        <mxCell id="yVtswH6ursYnuViOBzky-96" value="" style="endArrow=none;html=1;rounded=0;edgeStyle=orthogonalEdgeStyle;curved=1;exitX=1;exitY=0.5;exitDx=0;exitDy=0;entryX=0;entryY=0.5;entryDx=0;entryDy=0;" edge="1" parent="1" source="yVtswH6ursYnuViOBzky-50" target="yVtswH6ursYnuViOBzky-53">
          <mxGeometry width="50" height="50" relative="1" as="geometry">
            <mxPoint x="450" y="479" as="sourcePoint" />
            <mxPoint x="500" y="429" as="targetPoint" />
            <Array as="points">
              <mxPoint x="520" y="464" />
            </Array>
          </mxGeometry>
        </mxCell>
        <mxCell id="yVtswH6ursYnuViOBzky-97" value="&lt;font color=&quot;#36a150&quot;&gt;5&lt;/font&gt;" style="text;html=1;align=center;verticalAlign=middle;resizable=0;points=[];autosize=1;strokeColor=none;fillColor=none;fontColor=#0c180f;" vertex="1" parent="1">
          <mxGeometry x="430" y="408" width="30" height="30" as="geometry" />
        </mxCell>
        <mxCell id="yVtswH6ursYnuViOBzky-98" value="" style="endArrow=none;html=1;rounded=0;entryX=1;entryY=0.5;entryDx=0;entryDy=0;exitX=0;exitY=0.5;exitDx=0;exitDy=0;fillColor=#f8cecc;strokeColor=#b85450;strokeWidth=4;" edge="1" parent="1" source="yVtswH6ursYnuViOBzky-44" target="yVtswH6ursYnuViOBzky-41">
          <mxGeometry width="50" height="50" relative="1" as="geometry">
            <mxPoint x="40" y="469" as="sourcePoint" />
            <mxPoint x="90" y="419" as="targetPoint" />
          </mxGeometry>
        </mxCell>
        <mxCell id="yVtswH6ursYnuViOBzky-99" value="" style="endArrow=none;html=1;rounded=0;entryX=0;entryY=0.5;entryDx=0;entryDy=0;exitX=1;exitY=0.5;exitDx=0;exitDy=0;strokeWidth=1;" edge="1" parent="1" source="yVtswH6ursYnuViOBzky-44" target="yVtswH6ursYnuViOBzky-46">
          <mxGeometry width="50" height="50" relative="1" as="geometry">
            <mxPoint x="205" y="510" as="sourcePoint" />
            <mxPoint x="255" y="460" as="targetPoint" />
          </mxGeometry>
        </mxCell>
        <mxCell id="yVtswH6ursYnuViOBzky-100" value="1" style="text;html=1;align=center;verticalAlign=middle;whiteSpace=wrap;rounded=0;fontColor=#00CC00;" vertex="1" parent="1">
          <mxGeometry x="65" y="378" width="60" height="30" as="geometry" />
        </mxCell>
        <mxCell id="yVtswH6ursYnuViOBzky-101" value="2" style="text;html=1;align=center;verticalAlign=middle;resizable=0;points=[];autosize=1;strokeColor=none;fillColor=none;" vertex="1" parent="1">
          <mxGeometry x="195" y="328" width="30" height="30" as="geometry" />
        </mxCell>
        <mxCell id="yVtswH6ursYnuViOBzky-102" value="" style="endArrow=none;html=1;rounded=0;exitX=1;exitY=0.5;exitDx=0;exitDy=0;entryX=0;entryY=0.5;entryDx=0;entryDy=0;strokeWidth=4;fillColor=#f8cecc;strokeColor=#b85450;" edge="1" parent="1" source="yVtswH6ursYnuViOBzky-44" target="yVtswH6ursYnuViOBzky-49">
          <mxGeometry width="50" height="50" relative="1" as="geometry">
            <mxPoint x="220" y="560" as="sourcePoint" />
            <mxPoint x="270" y="510" as="targetPoint" />
          </mxGeometry>
        </mxCell>
        <mxCell id="yVtswH6ursYnuViOBzky-103" value="0.5" style="text;html=1;align=center;verticalAlign=middle;resizable=0;points=[];autosize=1;strokeColor=none;fillColor=none;fontColor=#00CC00;" vertex="1" parent="1">
          <mxGeometry x="230" y="358" width="40" height="30" as="geometry" />
        </mxCell>
        <mxCell id="yVtswH6ursYnuViOBzky-104" value="" style="endArrow=none;html=1;rounded=0;exitX=1;exitY=0.5;exitDx=0;exitDy=0;entryX=0;entryY=0.5;entryDx=0;entryDy=0;fillColor=#dae8fc;strokeColor=#6c8ebf;strokeWidth=4;" edge="1" parent="1" source="yVtswH6ursYnuViOBzky-41" target="yVtswH6ursYnuViOBzky-45">
          <mxGeometry width="50" height="50" relative="1" as="geometry">
            <mxPoint x="205" y="550" as="sourcePoint" />
            <mxPoint x="255" y="500" as="targetPoint" />
          </mxGeometry>
        </mxCell>
        <mxCell id="yVtswH6ursYnuViOBzky-105" value="" style="endArrow=none;html=1;rounded=0;entryX=1;entryY=0.5;entryDx=0;entryDy=0;exitX=0;exitY=0.5;exitDx=0;exitDy=0;" edge="1" parent="1" source="yVtswH6ursYnuViOBzky-50" target="yVtswH6ursYnuViOBzky-44">
          <mxGeometry width="50" height="50" relative="1" as="geometry">
            <mxPoint x="220" y="540" as="sourcePoint" />
            <mxPoint x="270" y="490" as="targetPoint" />
          </mxGeometry>
        </mxCell>
        <mxCell id="yVtswH6ursYnuViOBzky-106" value="" style="endArrow=none;html=1;rounded=0;exitX=1;exitY=0.5;exitDx=0;exitDy=0;entryX=0;entryY=0.5;entryDx=0;entryDy=0;fillColor=#dae8fc;strokeColor=#6c8ebf;strokeWidth=4;" edge="1" parent="1" source="yVtswH6ursYnuViOBzky-45" target="yVtswH6ursYnuViOBzky-50">
          <mxGeometry width="50" height="50" relative="1" as="geometry">
            <mxPoint x="215" y="540" as="sourcePoint" />
            <mxPoint x="265" y="490" as="targetPoint" />
          </mxGeometry>
        </mxCell>
        <mxCell id="yVtswH6ursYnuViOBzky-107" value="" style="endArrow=none;html=1;rounded=0;edgeStyle=orthogonalEdgeStyle;curved=1;exitX=1;exitY=0.5;exitDx=0;exitDy=0;" edge="1" parent="1" source="yVtswH6ursYnuViOBzky-45">
          <mxGeometry width="50" height="50" relative="1" as="geometry">
            <mxPoint x="295" y="575" as="sourcePoint" />
            <mxPoint x="520" y="300" as="targetPoint" />
            <Array as="points">
              <mxPoint x="190" y="510" />
              <mxPoint x="521" y="510" />
              <mxPoint x="521" y="300" />
            </Array>
          </mxGeometry>
        </mxCell>
        <mxCell id="yVtswH6ursYnuViOBzky-108" value="1" style="text;html=1;align=center;verticalAlign=middle;resizable=0;points=[];autosize=1;strokeColor=none;fillColor=none;" vertex="1" parent="1">
          <mxGeometry x="440" y="328" width="30" height="30" as="geometry" />
        </mxCell>
        <mxCell id="yVtswH6ursYnuViOBzky-109" value="6" style="text;html=1;align=center;verticalAlign=middle;resizable=0;points=[];autosize=1;strokeColor=none;fillColor=none;fontColor=#00CC00;" vertex="1" parent="1">
          <mxGeometry x="355" y="508" width="30" height="30" as="geometry" />
        </mxCell>
        <mxCell id="yVtswH6ursYnuViOBzky-110" value="1" style="text;html=1;align=center;verticalAlign=middle;resizable=0;points=[];autosize=1;strokeColor=none;fillColor=none;" vertex="1" parent="1">
          <mxGeometry x="205" y="440" width="30" height="30" as="geometry" />
        </mxCell>
        <mxCell id="yVtswH6ursYnuViOBzky-111" value="3" style="text;html=1;align=center;verticalAlign=middle;resizable=0;points=[];autosize=1;strokeColor=none;fillColor=none;" vertex="1" parent="1">
          <mxGeometry x="235" y="398" width="30" height="30" as="geometry" />
        </mxCell>
        <mxCell id="yVtswH6ursYnuViOBzky-112" value="&lt;font color=&quot;#00cc00&quot;&gt;2&lt;/font&gt;" style="text;html=1;align=center;verticalAlign=middle;resizable=0;points=[];autosize=1;strokeColor=none;fillColor=none;" vertex="1" parent="1">
          <mxGeometry x="130" y="348" width="30" height="30" as="geometry" />
        </mxCell>
      </root>
    </mxGraphModel>
  </diagram>
</mxfile>
